<svg width="94" height="88" viewBox="0 0 94 88" fill="none" xmlns="http://www.w3.org/2000/svg">
<circle cx="47" cy="44" r="43" fill="white" stroke="#B0B0B0" stroke-width="2"/>
<path d="M19.3281 45.8418C19.2051 46.8945 18.8154 47.708 18.1592 48.2822C17.5075 48.8519 16.6393 49.1367 15.5547 49.1367C14.3789 49.1367 13.4355 48.7152 12.7246 47.8721C12.0182 47.029 11.665 45.901 11.665 44.4883V43.5312C11.665 42.6061 11.8291 41.7926 12.1572 41.0908C12.4899 40.389 12.9593 39.8512 13.5654 39.4775C14.1715 39.0993 14.8734 38.9102 15.6709 38.9102C16.7282 38.9102 17.5758 39.2064 18.2139 39.7988C18.8519 40.3867 19.2233 41.2025 19.3281 42.2461H18.0088C17.8949 41.4531 17.6465 40.8789 17.2637 40.5234C16.8854 40.168 16.3545 39.9902 15.6709 39.9902C14.8324 39.9902 14.1738 40.3001 13.6953 40.9199C13.2214 41.5397 12.9844 42.4215 12.9844 43.5654V44.5293C12.9844 45.6094 13.21 46.4684 13.6611 47.1064C14.1123 47.7445 14.7435 48.0635 15.5547 48.0635C16.2839 48.0635 16.8421 47.8994 17.2295 47.5713C17.6214 47.2386 17.8812 46.6621 18.0088 45.8418H19.3281ZM20.5928 45.2334C20.5928 44.5088 20.734 43.8571 21.0166 43.2783C21.3037 42.6995 21.7002 42.2529 22.2061 41.9385C22.7165 41.624 23.2975 41.4668 23.9492 41.4668C24.9564 41.4668 25.7699 41.8154 26.3896 42.5127C27.014 43.21 27.3262 44.1374 27.3262 45.2949V45.3838C27.3262 46.1038 27.1872 46.751 26.9092 47.3252C26.6357 47.8949 26.2415 48.3392 25.7266 48.6582C25.2161 48.9772 24.6283 49.1367 23.9629 49.1367C22.9603 49.1367 22.1468 48.7881 21.5225 48.0908C20.9027 47.3936 20.5928 46.4707 20.5928 45.3223V45.2334ZM21.8643 45.3838C21.8643 46.2041 22.0534 46.8626 22.4316 47.3594C22.8145 47.8561 23.3249 48.1045 23.9629 48.1045C24.6055 48.1045 25.1159 47.8538 25.4941 47.3525C25.8724 46.8467 26.0615 46.1403 26.0615 45.2334C26.0615 44.4222 25.8678 43.766 25.4805 43.2646C25.0977 42.7588 24.5872 42.5059 23.9492 42.5059C23.3249 42.5059 22.8213 42.7542 22.4385 43.251C22.0557 43.7477 21.8643 44.4587 21.8643 45.3838ZM30.2861 49H29.0215V38.5H30.2861V49ZM31.9814 45.2334C31.9814 44.5088 32.1227 43.8571 32.4053 43.2783C32.6924 42.6995 33.0889 42.2529 33.5947 41.9385C34.1051 41.624 34.6862 41.4668 35.3379 41.4668C36.3451 41.4668 37.1585 41.8154 37.7783 42.5127C38.4027 43.21 38.7148 44.1374 38.7148 45.2949V45.3838C38.7148 46.1038 38.5758 46.751 38.2979 47.3252C38.0244 47.8949 37.6302 48.3392 37.1152 48.6582C36.6048 48.9772 36.0169 49.1367 35.3516 49.1367C34.349 49.1367 33.5355 48.7881 32.9111 48.0908C32.2913 47.3936 31.9814 46.4707 31.9814 45.3223V45.2334ZM33.2529 45.3838C33.2529 46.2041 33.4421 46.8626 33.8203 47.3594C34.2031 47.8561 34.7135 48.1045 35.3516 48.1045C35.9941 48.1045 36.5046 47.8538 36.8828 47.3525C37.2611 46.8467 37.4502 46.1403 37.4502 45.2334C37.4502 44.4222 37.2565 43.766 36.8691 43.2646C36.4863 42.7588 35.9759 42.5059 35.3379 42.5059C34.7135 42.5059 34.21 42.7542 33.8271 43.251C33.4443 43.7477 33.2529 44.4587 33.2529 45.3838ZM43.876 42.7383C43.6846 42.7064 43.4772 42.6904 43.2539 42.6904C42.4245 42.6904 41.8617 43.0436 41.5654 43.75V49H40.3008V41.6035H41.5312L41.5518 42.458C41.9665 41.7972 42.5544 41.4668 43.3154 41.4668C43.5615 41.4668 43.7484 41.4987 43.876 41.5625V42.7383ZM49.707 41.6035L49.7412 42.4238C50.2835 41.7858 51.015 41.4668 51.9355 41.4668C52.9701 41.4668 53.6742 41.8633 54.0479 42.6562C54.2939 42.3008 54.613 42.0137 55.0049 41.7949C55.4014 41.5762 55.8685 41.4668 56.4062 41.4668C58.0286 41.4668 58.8535 42.3258 58.8809 44.0439V49H57.6162V44.1191C57.6162 43.5905 57.4954 43.1963 57.2539 42.9365C57.0124 42.6722 56.6068 42.54 56.0371 42.54C55.5677 42.54 55.1781 42.6813 54.8682 42.9639C54.5583 43.2419 54.3783 43.6178 54.3281 44.0918V49H53.0566V44.1533C53.0566 43.0778 52.5303 42.54 51.4775 42.54C50.6481 42.54 50.0807 42.8932 49.7754 43.5996V49H48.5107V41.6035H49.707ZM60.46 45.2334C60.46 44.5088 60.6012 43.8571 60.8838 43.2783C61.1709 42.6995 61.5674 42.2529 62.0732 41.9385C62.5837 41.624 63.1647 41.4668 63.8164 41.4668C64.8236 41.4668 65.637 41.8154 66.2568 42.5127C66.8812 43.21 67.1934 44.1374 67.1934 45.2949V45.3838C67.1934 46.1038 67.0544 46.751 66.7764 47.3252C66.5029 47.8949 66.1087 48.3392 65.5938 48.6582C65.0833 48.9772 64.4954 49.1367 63.8301 49.1367C62.8275 49.1367 62.014 48.7881 61.3896 48.0908C60.7699 47.3936 60.46 46.4707 60.46 45.3223V45.2334ZM61.7314 45.3838C61.7314 46.2041 61.9206 46.8626 62.2988 47.3594C62.6816 47.8561 63.1921 48.1045 63.8301 48.1045C64.4727 48.1045 64.9831 47.8538 65.3613 47.3525C65.7396 46.8467 65.9287 46.1403 65.9287 45.2334C65.9287 44.4222 65.735 43.766 65.3477 43.2646C64.9648 42.7588 64.4544 42.5059 63.8164 42.5059C63.1921 42.5059 62.6885 42.7542 62.3057 43.251C61.9229 43.7477 61.7314 44.4587 61.7314 45.3838ZM68.4717 45.2402C68.4717 44.1055 68.7406 43.194 69.2783 42.5059C69.8161 41.8132 70.5202 41.4668 71.3906 41.4668C72.2565 41.4668 72.9424 41.763 73.4482 42.3555V38.5H74.7129V49H73.5508L73.4893 48.207C72.9834 48.8268 72.2793 49.1367 71.377 49.1367C70.5202 49.1367 69.8206 48.7858 69.2783 48.084C68.7406 47.3822 68.4717 46.4661 68.4717 45.3359V45.2402ZM69.7363 45.3838C69.7363 46.2223 69.9095 46.8786 70.2559 47.3525C70.6022 47.8265 71.0807 48.0635 71.6914 48.0635C72.4935 48.0635 73.0791 47.7035 73.4482 46.9834V43.5859C73.07 42.8887 72.4889 42.54 71.7051 42.54C71.0853 42.54 70.6022 42.7793 70.2559 43.2578C69.9095 43.7363 69.7363 44.445 69.7363 45.3838ZM79.751 49.1367C78.7484 49.1367 77.9326 48.8086 77.3037 48.1523C76.6748 47.4915 76.3604 46.6097 76.3604 45.5068V45.2744C76.3604 44.5407 76.4993 43.8867 76.7773 43.3125C77.0599 42.7337 77.4518 42.2826 77.9531 41.959C78.459 41.6309 79.0059 41.4668 79.5938 41.4668C80.5553 41.4668 81.3027 41.7835 81.8359 42.417C82.3691 43.0505 82.6357 43.9574 82.6357 45.1377V45.6641H77.625C77.6432 46.3932 77.8551 46.9834 78.2607 47.4346C78.6709 47.8812 79.1904 48.1045 79.8193 48.1045C80.266 48.1045 80.6442 48.0133 80.9541 47.8311C81.264 47.6488 81.5352 47.4072 81.7676 47.1064L82.54 47.708C81.9202 48.6605 80.9906 49.1367 79.751 49.1367ZM79.5938 42.5059C79.0833 42.5059 78.6549 42.6927 78.3086 43.0664C77.9622 43.4355 77.748 43.9551 77.666 44.625H81.3711V44.5293C81.3346 43.8867 81.1615 43.39 80.8516 43.0391C80.5417 42.6836 80.1224 42.5059 79.5938 42.5059Z" fill="black"/>
</svg>
