<svg width="94" height="88" viewBox="0 0 94 88" fill="none" xmlns="http://www.w3.org/2000/svg">
<circle cx="47" cy="44" r="43" fill="white" stroke="#B0B0B0" stroke-width="2"/>
<path d="M27.9824 47.6943C27.6452 48.1774 27.1735 48.5397 26.5674 48.7812C25.9658 49.0182 25.264 49.1367 24.4619 49.1367C23.6507 49.1367 22.9307 48.9476 22.3018 48.5693C21.6729 48.1865 21.1852 47.6442 20.8389 46.9424C20.4971 46.2406 20.3216 45.4271 20.3125 44.502V43.6338C20.3125 42.1344 20.6611 40.9723 21.3584 40.1475C22.0602 39.3226 23.0446 38.9102 24.3115 38.9102C25.3506 38.9102 26.1868 39.1768 26.8203 39.71C27.4538 40.2386 27.8411 40.9906 27.9824 41.9658H26.6699C26.4238 40.6488 25.64 39.9902 24.3184 39.9902C23.4388 39.9902 22.7712 40.3001 22.3154 40.9199C21.8643 41.5352 21.6364 42.4284 21.6318 43.5996V44.4131C21.6318 45.5296 21.887 46.4183 22.3975 47.0791C22.9079 47.7354 23.5983 48.0635 24.4688 48.0635C24.9609 48.0635 25.3916 48.0088 25.7607 47.8994C26.1299 47.79 26.4352 47.6055 26.6768 47.3457V45.1104H24.373V44.0439H27.9824V47.6943ZM33.5537 42.7383C33.3623 42.7064 33.1549 42.6904 32.9316 42.6904C32.1022 42.6904 31.5394 43.0436 31.2432 43.75V49H29.9785V41.6035H31.209L31.2295 42.458C31.6442 41.7972 32.2321 41.4668 32.9932 41.4668C33.2393 41.4668 33.4261 41.4987 33.5537 41.5625V42.7383ZM36.0967 49H34.832V41.6035H36.0967V49ZM34.7295 39.6416C34.7295 39.4365 34.791 39.2633 34.9141 39.1221C35.0417 38.9808 35.2285 38.9102 35.4746 38.9102C35.7207 38.9102 35.9076 38.9808 36.0352 39.1221C36.1628 39.2633 36.2266 39.4365 36.2266 39.6416C36.2266 39.8467 36.1628 40.0176 36.0352 40.1543C35.9076 40.291 35.7207 40.3594 35.4746 40.3594C35.2285 40.3594 35.0417 40.291 34.9141 40.1543C34.791 40.0176 34.7295 39.8467 34.7295 39.6416ZM37.8193 45.2402C37.8193 44.1055 38.0882 43.194 38.626 42.5059C39.1637 41.8132 39.8678 41.4668 40.7383 41.4668C41.6042 41.4668 42.29 41.763 42.7959 42.3555V38.5H44.0605V49H42.8984L42.8369 48.207C42.3311 48.8268 41.627 49.1367 40.7246 49.1367C39.8678 49.1367 39.1683 48.7858 38.626 48.084C38.0882 47.3822 37.8193 46.4661 37.8193 45.3359V45.2402ZM39.084 45.3838C39.084 46.2223 39.2572 46.8786 39.6035 47.3525C39.9499 47.8265 40.4284 48.0635 41.0391 48.0635C41.8411 48.0635 42.4268 47.7035 42.7959 46.9834V43.5859C42.4176 42.8887 41.8366 42.54 41.0527 42.54C40.4329 42.54 39.9499 42.7793 39.6035 43.2578C39.2572 43.7363 39.084 44.445 39.084 45.3838ZM52.6328 44.5635C51.5072 44.2399 50.6868 43.8434 50.1719 43.374C49.6615 42.9001 49.4062 42.3167 49.4062 41.624C49.4062 40.8402 49.7184 40.193 50.3428 39.6826C50.9717 39.1676 51.7874 38.9102 52.79 38.9102C53.4736 38.9102 54.082 39.0423 54.6152 39.3066C55.153 39.571 55.5677 39.9355 55.8594 40.4004C56.1556 40.8652 56.3037 41.3734 56.3037 41.9248H54.9844C54.9844 41.3232 54.793 40.8516 54.4102 40.5098C54.0273 40.1634 53.4873 39.9902 52.79 39.9902C52.1429 39.9902 51.637 40.1338 51.2725 40.4209C50.9124 40.7035 50.7324 41.0977 50.7324 41.6035C50.7324 42.0091 50.9033 42.3532 51.2451 42.6357C51.5915 42.9137 52.1771 43.1689 53.002 43.4014C53.8314 43.6338 54.4785 43.8913 54.9434 44.1738C55.4128 44.4518 55.7591 44.7777 55.9824 45.1514C56.2103 45.5251 56.3242 45.9648 56.3242 46.4707C56.3242 47.2773 56.0098 47.9245 55.3809 48.4121C54.752 48.8952 53.9111 49.1367 52.8584 49.1367C52.1748 49.1367 51.5368 49.0068 50.9443 48.7471C50.3519 48.4827 49.8939 48.1227 49.5703 47.667C49.2513 47.2113 49.0918 46.694 49.0918 46.1152H50.4111C50.4111 46.7168 50.6322 47.193 51.0742 47.5439C51.5208 47.8903 52.1156 48.0635 52.8584 48.0635C53.5511 48.0635 54.082 47.9222 54.4512 47.6396C54.8203 47.3571 55.0049 46.972 55.0049 46.4844C55.0049 45.9967 54.834 45.6208 54.4922 45.3564C54.1504 45.0876 53.5306 44.8232 52.6328 44.5635ZM59.1885 49H57.9238V41.6035H59.1885V49ZM57.8213 39.6416C57.8213 39.4365 57.8828 39.2633 58.0059 39.1221C58.1335 38.9808 58.3203 38.9102 58.5664 38.9102C58.8125 38.9102 58.9993 38.9808 59.127 39.1221C59.2546 39.2633 59.3184 39.4365 59.3184 39.6416C59.3184 39.8467 59.2546 40.0176 59.127 40.1543C58.9993 40.291 58.8125 40.3594 58.5664 40.3594C58.3203 40.3594 58.1335 40.291 58.0059 40.1543C57.8828 40.0176 57.8213 39.8467 57.8213 39.6416ZM62.4082 47.9678H66.7354V49H60.8633V48.0703L64.9443 42.6494H60.9248V41.6035H66.5303V42.499L62.4082 47.9678ZM71.124 49.1367C70.1214 49.1367 69.3057 48.8086 68.6768 48.1523C68.0479 47.4915 67.7334 46.6097 67.7334 45.5068V45.2744C67.7334 44.5407 67.8724 43.8867 68.1504 43.3125C68.4329 42.7337 68.8249 42.2826 69.3262 41.959C69.832 41.6309 70.3789 41.4668 70.9668 41.4668C71.9284 41.4668 72.6758 41.7835 73.209 42.417C73.7422 43.0505 74.0088 43.9574 74.0088 45.1377V45.6641H68.998C69.0163 46.3932 69.2282 46.9834 69.6338 47.4346C70.0439 47.8812 70.5635 48.1045 71.1924 48.1045C71.639 48.1045 72.0173 48.0133 72.3271 47.8311C72.637 47.6488 72.9082 47.4072 73.1406 47.1064L73.9131 47.708C73.2933 48.6605 72.3636 49.1367 71.124 49.1367ZM70.9668 42.5059C70.4564 42.5059 70.028 42.6927 69.6816 43.0664C69.3353 43.4355 69.1211 43.9551 69.0391 44.625H72.7441V44.5293C72.7077 43.8867 72.5345 43.39 72.2246 43.0391C71.9147 42.6836 71.4954 42.5059 70.9668 42.5059Z" fill="black"/>
</svg>
